<svg width="160" height="160" viewBox="0 0 160 160" fill="none" xmlns="http://www.w3.org/2000/svg">
<path d="M59.2311 46.4839L19.9202 129.152L17.2298 127.805L57.5585 42.9958L59.2311 46.4839Z" fill="#918585"/>
<path d="M97.1045 125.477L98.783 122.187L58.8906 45.6181L56.2175 47L97.1045 125.477Z" fill="#918585"/>
<path d="M107.474 96.8836L109.216 100.227L97.0862 126.034L95.447 122.472L107.474 96.8836Z" fill="#918585"/>
<path fill-rule="evenodd" clip-rule="evenodd" d="M63.4891 40.8174L61.8162 37.4308L79.1395 2.37043L78.6208 1.32039L79.9899 0.649317L80.3107 0L80.8126 0.246061L81.3146 0L81.6354 0.649481L83.0043 1.32066L82.4856 2.3706L143.555 126L140.862 127.32L80.8123 5.75703L63.4891 40.8174Z" fill="#675757"/>
<path d="M160 70H155.951C151.037 32.7524 119.044 4 80.3107 4C38.174 4 4.01553 38.0264 4.01553 80C4.01553 121.974 38.174 156 80.3107 156C119.044 156 151.037 127.248 155.951 90H160C155.06 129.463 121.265 160 80.3107 160C35.9563 160 0 124.183 0 80C0 35.8172 35.9563 0 80.3107 0C121.265 0 155.06 30.5369 160 70Z" fill="black"/>
<path d="M146.691 95L142.551 90H158.614V95H146.691Z" fill="black"/>
</svg>