<svg width="40" height="40" viewBox="0 0 40 40" fill="none" xmlns="http://www.w3.org/2000/svg">
<circle cx="20" cy="20" r="20" fill="#FFF36C"/>
<path d="M20 11C25.8 11 30.501 14.664 30.501 19.185C30.501 23.705 25.8 27.369 20.001 27.369C19.4236 27.368 18.8468 27.3312 18.274 27.259L13.866 30.142C13.365 30.407 13.188 30.378 13.394 29.729L14.286 26.051C11.406 24.591 9.501 22.061 9.501 19.185C9.501 14.665 14.201 11 20.001 11M25.909 19.06L27.379 17.636C27.4638 17.5479 27.5111 17.4303 27.511 17.308C27.5108 17.1858 27.4632 17.0683 27.3782 16.9804C27.2932 16.8925 27.1773 16.8411 27.0551 16.8369C26.9329 16.8327 26.8138 16.8761 26.723 16.958L24.795 18.824V17.282C24.795 17.1568 24.7453 17.0368 24.6568 16.9482C24.5682 16.8597 24.4482 16.81 24.323 16.81C24.1978 16.81 24.0778 16.8597 23.9892 16.9482C23.9007 17.0368 23.851 17.1568 23.851 17.282V19.839C23.8344 19.9121 23.8344 19.9879 23.851 20.061V21.5C23.851 21.6252 23.9007 21.7452 23.9892 21.8338C24.0778 21.9223 24.1978 21.972 24.323 21.972C24.4482 21.972 24.5682 21.9223 24.6568 21.8338C24.7453 21.7452 24.795 21.6252 24.795 21.5V20.137L25.222 19.724L26.65 21.757C26.6857 21.8078 26.731 21.851 26.7833 21.8842C26.8357 21.9175 26.8941 21.9401 26.9552 21.9508C27.0163 21.9615 27.0789 21.96 27.1394 21.9465C27.2 21.933 27.2572 21.9077 27.308 21.872C27.3588 21.8363 27.402 21.791 27.4352 21.7387C27.4685 21.6863 27.4911 21.6279 27.5018 21.5668C27.5125 21.5057 27.511 21.4431 27.4975 21.3826C27.484 21.322 27.4587 21.2648 27.423 21.214L25.909 19.06ZM22.951 20.984H21.491V17.297C21.4854 17.1757 21.4333 17.0612 21.3455 16.9774C21.2577 16.8935 21.1409 16.8467 21.0195 16.8467C20.8981 16.8467 20.7813 16.8935 20.6935 16.9774C20.6057 17.0612 20.5536 17.1757 20.548 17.297V21.456C20.548 21.716 20.758 21.928 21.019 21.928H22.951C23.0762 21.928 23.1962 21.8783 23.2848 21.7898C23.3733 21.7012 23.423 21.5812 23.423 21.456C23.423 21.3308 23.3733 21.2108 23.2848 21.1222C23.1962 21.0337 23.0762 20.984 22.951 20.984ZM17.094 19.893L17.79 18.185L18.428 19.892L17.094 19.893ZM19.617 20.38L19.619 20.364C19.6187 20.2451 19.5733 20.1308 19.492 20.044L18.446 17.244C18.4022 17.1106 18.3186 16.9937 18.2066 16.909C18.0946 16.8243 17.9593 16.7758 17.819 16.77C17.6778 16.7699 17.5398 16.8126 17.4233 16.8924C17.3067 16.9721 17.217 17.0853 17.166 17.217L15.504 21.292C15.4567 21.4079 15.4573 21.5379 15.5058 21.6533C15.5543 21.7687 15.6466 21.8602 15.7625 21.9075C15.8784 21.9548 16.0084 21.9542 16.1238 21.9057C16.2392 21.8572 16.3307 21.7649 16.378 21.649L16.71 20.836H18.78L19.078 21.636C19.0983 21.6958 19.1305 21.7509 19.1725 21.7981C19.2145 21.8452 19.2655 21.8835 19.3226 21.9105C19.3797 21.9376 19.4416 21.9529 19.5047 21.9557C19.5678 21.9584 19.6308 21.9484 19.69 21.9263C19.7491 21.9042 19.8033 21.8704 19.8492 21.8271C19.8951 21.7837 19.9318 21.7315 19.9571 21.6737C19.9825 21.6158 19.996 21.5535 19.9968 21.4903C19.9977 21.4272 19.9858 21.3645 19.962 21.306L19.617 20.38ZM16.294 17.302C16.2943 17.24 16.2823 17.1786 16.2587 17.1213C16.2351 17.064 16.2005 17.0119 16.1567 16.968C16.1129 16.9241 16.0609 16.8894 16.0036 16.8657C15.9464 16.842 15.885 16.8299 15.823 16.83H12.578C12.4528 16.83 12.3328 16.8797 12.2442 16.9682C12.1557 17.0568 12.106 17.1768 12.106 17.302C12.106 17.4272 12.1557 17.5472 12.2442 17.6358C12.3328 17.7243 12.4528 17.774 12.578 17.774H13.738V21.51C13.738 21.6352 13.7877 21.7552 13.8762 21.8438C13.9648 21.9323 14.0848 21.982 14.21 21.982C14.3352 21.982 14.4552 21.9323 14.5438 21.8438C14.6323 21.7552 14.682 21.6352 14.682 21.51V17.774H15.822C15.8841 17.7743 15.9456 17.7622 16.0029 17.7386C16.0603 17.715 16.1125 17.6802 16.1563 17.6363C16.2002 17.5925 16.235 17.5403 16.2586 17.4829C16.2822 17.4256 16.2943 17.3641 16.294 17.302Z" fill="black"/>
</svg>